<?xml version="1.0" encoding="UTF-8" standalone="no"?>
<!-- Created with Inkscape (http://www.inkscape.org/) -->

<svg
   xmlns:dc="http://purl.org/dc/elements/1.1/"
   xmlns:cc="http://creativecommons.org/ns#"
   xmlns:rdf="http://www.w3.org/1999/02/22-rdf-syntax-ns#"
   xmlns:svg="http://www.w3.org/2000/svg"
   xmlns="http://www.w3.org/2000/svg"
   xmlns:xlink="http://www.w3.org/1999/xlink"
   xmlns:sodipodi="http://sodipodi.sourceforge.net/DTD/sodipodi-0.dtd"
   xmlns:inkscape="http://www.inkscape.org/namespaces/inkscape"
   width="500"
   height="500"
   viewBox="0 0 499.99998 499.99998"
   id="svg2"
   version="1.1"
   inkscape:version="0.91 r13725"
   sodipodi:docname="splash.svg">
  <defs
     id="defs4">
    <linearGradient
       inkscape:collect="always"
       id="linearGradient4415">
      <stop
         style="stop-color:#000000;stop-opacity:1"
         offset="0"
         id="stop4417" />
      <stop
         style="stop-color:#000000;stop-opacity:0"
         offset="1"
         id="stop4419" />
    </linearGradient>
    <linearGradient
       inkscape:collect="always"
       id="linearGradient4365">
      <stop
         style="stop-color:#fdc12f;stop-opacity:1"
         offset="0"
         id="stop4367" />
      <stop
         style="stop-color:#ffeb3b;stop-opacity:0;"
         offset="1"
         id="stop4369" />
    </linearGradient>
    <linearGradient
       inkscape:collect="always"
       xlink:href="#linearGradient4365"
       id="linearGradient4371"
       x1="320"
       y1="-21.92351"
       x2="319.38104"
       y2="402.1611"
       gradientUnits="userSpaceOnUse"
       gradientTransform="matrix(0.50497951,0,0,0.50497951,95.859738,654.04187)" />
    <linearGradient
       inkscape:collect="always"
       xlink:href="#linearGradient4415"
       id="linearGradient4421"
       x1="311.42856"
       y1="478.07648"
       x2="427.2995"
       y2="666.08264"
       gradientUnits="userSpaceOnUse"
       gradientTransform="matrix(0.53377671,0,0,0.53377671,59.818661,618.87571)" />
  </defs>
  <sodipodi:namedview
     id="base"
     pagecolor="#ffffff"
     bordercolor="#666666"
     borderopacity="1.0"
     inkscape:pageopacity="0.0"
     inkscape:pageshadow="2"
     inkscape:zoom="0.98994949"
     inkscape:cx="67.897294"
     inkscape:cy="341.70314"
     inkscape:document-units="px"
     inkscape:current-layer="layer1"
     showgrid="false"
     units="px"
     inkscape:window-width="1280"
     inkscape:window-height="961"
     inkscape:window-x="-8"
     inkscape:window-y="-8"
     inkscape:window-maximized="1" />
  <metadata
     id="metadata7">
    <rdf:RDF>
      <cc:Work
         rdf:about="">
        <dc:format>image/svg+xml</dc:format>
        <dc:type
           rdf:resource="http://purl.org/dc/dcmitype/StillImage" />
        <dc:title></dc:title>
      </cc:Work>
    </rdf:RDF>
  </metadata>
  <g
     inkscape:label="Camada 1"
     inkscape:groupmode="layer"
     id="layer1"
     transform="translate(0,-552.36209)">
    <path
       style="fill:none"
       inkscape:connector-curvature="0"
       d="m -937.29973,-527.39454 355.33003,0 0,355.33003 -355.33003,0 z"
       id="path4255" />
    <circle
       style="opacity:1;fill:#ffffff;fill-opacity:1"
       id="path4303"
       cx="663.51935"
       cy="532.39044"
       r="11.199926"
       transform="matrix(0.89849017,0.43899364,-0.43899364,0.89849017,0,0)" />
    <path
       style="fill:none"
       inkscape:connector-curvature="0"
       d="m 266.80356,761.45302 90.63219,0 0,90.6322 -90.63219,0 z"
       id="path4217" />
    <path
       style="opacity:0.13999999;fill:url(#linearGradient4421);fill-opacity:1"
       d="M 306.88103,945.7404 350.34569,836.69744 477.68956,970.90416 350.34569,1083.7598 154.37339,951.8407 Z"
       id="rect4404"
       inkscape:connector-curvature="0"
       sodipodi:nodetypes="cccccc" />
    <circle
       style="opacity:1;fill:url(#linearGradient4371);fill-opacity:1"
       id="path4363"
       cx="258.53528"
       cy="832.33838"
       r="187.20311" />
    <path
       id="path4138"
       d="m 228.69135,798.00553 -60.21776,0 c -11.03993,0 -19.97222,9.03265 -19.97222,20.07259 L 148.401,938.51364 c 0,11.03992 9.03266,20.0726 20.07259,20.0726 l 160.5807,0 c 11.03993,0 20.07259,-9.03268 20.07259,-20.0726 l 0,-100.36295 c 0,-11.03991 -9.03266,-20.07257 -20.07259,-20.07257 l -80.29035,0 -20.07259,-20.07259 z"
       inkscape:connector-curvature="0"
       style="fill:#536dfe;fill-opacity:1" />
    <g
       id="g4395"
       transform="matrix(0.53377671,0,0,0.53377671,59.818661,618.87571)">
      <rect
         transform="matrix(0.89849017,0.43899364,-0.43899364,0.89849017,0,0)"
         style="opacity:1;fill:#baece8;fill-opacity:1"
         id="rect4296"
         width="183.87749"
         height="248.89493"
         x="489.51495"
         y="-71.829544"
         rx="28.445133"
         ry="28.445133" />
      <path
         inkscape:connector-curvature="0"
         id="path4301"
         d="m 465.38876,309.05832 c -19.10277,-9.33343 -51.34505,28.50317 -79.85102,58.82783 -2.9466,3.13458 -5.52341,6.42014 -7.75987,9.81166 2.43933,3.7199 5.75903,6.76455 9.87375,8.77496 l 75.98352,37.12482 c 1.94907,-4.79578 3.45783,-9.93162 4.4205,-15.39398 8.23911,-46.74965 14.96239,-90.5318 -2.66688,-99.14529 z"
         style="opacity:1;fill:#4caf50;fill-opacity:1" />
      <path
         inkscape:connector-curvature="0"
         id="rect4326"
         d="m 504.06742,355.77422 c -16.85539,-8.23537 -45.30415,25.1496 -70.4565,51.90664 -0.26799,0.2851 -0.53121,0.57218 -0.79233,0.86006 l 69.83977,34.12304 c 1.17913,0.57611 2.38532,1.04647 3.61031,1.41905 0.052,-0.27524 0.10306,-0.55092 0.15191,-0.82806 7.26979,-41.24968 13.20207,-79.88059 -2.35316,-87.48073 z"
         style="opacity:1;fill:#8bc34a;fill-opacity:1" />
    </g>
    <path
       style="opacity:1;fill:#4eb8ae;fill-opacity:1"
       inkscape:connector-curvature="0"
       d="m 190.28047,738.37393 c -5.25447,1.75073 -8.07341,7.46635 -6.32268,12.72083 l 25.41736,76.44469 c 1.75073,5.25448 7.4345,8.1371 12.68897,6.38638 l 57.36935,-19.11477 c 5.25449,-1.75074 8.12118,-7.48227 6.37045,-12.73674 l -19.09885,-57.32158 -38.21021,-19.11137 -38.21439,12.73256 z m 44.57859,22.2966 -8.75364,-26.2724 35.02603,17.51876 -26.27239,8.75364 z"
       id="path4215" />
    <path
       id="path4273"
       d="m 242.7151,777.74977 -5.7417,17.21759 11.34011,7.85304 -3.30654,4.77479 c -6.72143,-4.64753 -17.90545,-12.39955 -17.90545,-12.39955 l -9.18672,27.54813 60.61119,-20.1949 -35.81089,-24.7991 z"
       inkscape:connector-curvature="0"
       style="fill:#ffffff" />
    <circle
       style="opacity:1;fill:#ffffff;fill-opacity:1"
       id="path4277"
       cx="-34.984348"
       cy="813.63391"
       r="6.8536582"
       transform="matrix(0.94872472,-0.31610347,0.31610347,0.94872472,0,0)" />
    <path
       sodipodi:nodetypes="ccssssscc"
       style="fill:#657bfe;fill-opacity:1"
       inkscape:connector-curvature="0"
       d="M 148.50137,818.07812 148.401,938.51364 c 0,11.03992 9.03266,20.0726 20.07259,20.0726 l 160.5807,0 c 11.03993,0 20.07259,-9.03268 20.07259,-20.0726 l 0,-100.36295 c 0,-11.03991 -9.03266,-20.07257 -20.07259,-20.07257 l -80.29035,0 c -55.57461,0.5566 -61.20601,0.86957 -100.26257,0 z"
       id="path4181" />
    <path
       style="fill:#ffffff"
       inkscape:connector-curvature="0"
       d="m 257.8807,867.306 -19.84632,26.46175 15.08321,20.11094 -8.46776,6.35082 C 235.70575,908.32172 220.83425,888.4754 220.83425,888.4754 l -31.75411,42.33881 116.43173,0 L 257.8807,867.306 Z"
       id="path4156" />
    <circle
       style="opacity:1;fill:#ffe680;fill-opacity:1"
       id="path4400"
       cx="353.01456"
       cy="774.5506"
       r="8.7691879" />
    <path
       style="fill:#fcbf4a;fill-opacity:1"
       inkscape:connector-curvature="0"
       d="m 475.22741,585.21336 c -3.31314,-16.80927 -18.07605,-29.4284 -35.81104,-29.4284 -14.08081,0 -26.31016,7.99049 -32.40047,19.6839 -14.66547,1.55912 -26.06654,13.98336 -26.06654,29.03861 0,16.12715 13.10635,29.23351 29.2335,29.23351 l 63.33926,0 c 13.44741,0 24.36125,-10.91384 24.36125,-24.36125 0,-12.86275 -9.98811,-23.28936 -22.65596,-24.16637 z"
       id="path4502" />
    <path
       id="path4516"
       d="m 408.65836,605.7262 c -2.8552,-14.48592 -15.57761,-25.36085 -30.8613,-25.36085 -12.13458,0 -22.67361,6.88606 -27.92213,16.96322 -12.63843,1.34362 -22.46366,12.0506 -22.46366,25.02494 0,13.89808 11.29481,25.1929 25.19289,25.1929 l 54.58461,0 c 11.58873,0 20.99407,-9.40535 20.99407,-20.99408 0,-11.08488 -8.60756,-20.07034 -19.52448,-20.82613 z"
       inkscape:connector-curvature="0"
       style="opacity:1;fill:#fd9a1b;fill-opacity:1" />
    <rect
       style="opacity:1;fill:#fd9a1b;fill-opacity:1"
       id="rect4558"
       width="6.559835"
       height="135.63528"
       x="37.578838"
       y="746.1073"
       ry="0" />
    <path
       style="fill:#fcbf4a;fill-opacity:1"
       inkscape:connector-curvature="0"
       d="m 41.936194,746.33842 c -1.183926,-9.53872 5.778398,-18.47425 15.317113,-19.65817 9.538715,-1.18393 18.474247,5.77839 19.658173,15.31711 l -34.975286,4.34106 z m 0,0 c 1.183926,9.53872 -5.778398,18.47425 -15.317113,19.65817 -9.538714,1.18393 -18.4742472,-5.77839 -19.6581732,-15.31711 l 34.9752862,-4.34106 z m 0,0 c -9.538715,1.18393 -18.474247,-5.7784 -19.658173,-15.31711 -1.183926,-9.53872 5.778399,-18.47425 15.317113,-19.65818 l 4.34106,34.97529 z m 0,0 c 9.538715,-1.18393 18.474247,5.7784 19.658173,15.31711 1.183926,9.53872 -5.778399,18.47425 -15.317113,19.65818 l -4.34106,-34.97529 z"
       id="path4542" />
    <path
       style="opacity:1;fill:#fd9a1b;fill-opacity:1"
       inkscape:connector-curvature="0"
       d="m 58.921799,643.32263 c -1.45877,-7.40109 -7.958864,-12.95728 -15.767555,-12.95728 -6.199758,0 -11.584324,3.51821 -14.26588,8.6668 -6.457184,0.68647 -11.477057,6.15684 -11.477057,12.78565 0,7.10076 5.770706,12.87147 12.871466,12.87147 l 27.888188,0 c 5.920875,0 10.72622,-4.80535 10.72622,-10.72622 0,-5.66345 -4.397746,-10.25427 -9.975382,-10.64042 z"
       id="path4570" />
    <path
       id="path4568"
       d="m 93.32567,651.19669 c -1.81552,-9.21106 -9.90522,-16.12602 -19.62354,-16.12602 -7.71593,0 -14.417303,4.37859 -17.754638,10.78628 -8.036308,0.85436 -14.283806,7.66253 -14.283806,15.91242 0,8.83727 7.181948,16.01922 16.01922,16.01922 l 34.708314,0 c 7.368835,0 13.34933,-5.9805 13.34933,-13.34934 0,-7.04846 -5.47323,-12.76198 -12.41488,-13.24256 z"
       inkscape:connector-curvature="0"
       style="fill:#fcbf4a;fill-opacity:1" />
  </g>
</svg>
