<?xml version="1.0" encoding="UTF-8" standalone="no"?>
<!-- Created with Inkscape (http://www.inkscape.org/) -->

<svg
   xmlns:dc="http://purl.org/dc/elements/1.1/"
   xmlns:cc="http://creativecommons.org/ns#"
   xmlns:rdf="http://www.w3.org/1999/02/22-rdf-syntax-ns#"
   xmlns:svg="http://www.w3.org/2000/svg"
   xmlns="http://www.w3.org/2000/svg"
   xmlns:xlink="http://www.w3.org/1999/xlink"
   xmlns:sodipodi="http://sodipodi.sourceforge.net/DTD/sodipodi-0.dtd"
   xmlns:inkscape="http://www.inkscape.org/namespaces/inkscape"
   width="500"
   height="500"
   viewBox="0 0 499.99998 499.99998"
   id="svg2"
   version="1.1"
   inkscape:version="0.91 r13725"
   sodipodi:docname="splash.svg">
  <defs
     id="defs4">
    <linearGradient
       inkscape:collect="always"
       id="linearGradient4415">
      <stop
         style="stop-color:#000000;stop-opacity:1"
         offset="0"
         id="stop4417" />
      <stop
         style="stop-color:#000000;stop-opacity:0"
         offset="1"
         id="stop4419" />
    </linearGradient>
    <linearGradient
       inkscape:collect="always"
       id="linearGradient4365">
      <stop
         style="stop-color:#fdc12f;stop-opacity:1"
         offset="0"
         id="stop4367" />
      <stop
         style="stop-color:#ffeb3b;stop-opacity:0;"
         offset="1"
         id="stop4369" />
    </linearGradient>
    <linearGradient
       inkscape:collect="always"
       xlink:href="#linearGradient4365"
       id="linearGradient4371"
       x1="320"
       y1="-21.92351"
       x2="319.38104"
       y2="402.1611"
       gradientUnits="userSpaceOnUse"
       gradientTransform="matrix(0.50497951,0,0,0.50497951,95.859738,654.04187)" />
    <linearGradient
       inkscape:collect="always"
       xlink:href="#linearGradient4415"
       id="linearGradient4421"
       x1="387.18417"
       y1="522.48492"
       x2="390.72778"
       y2="727.47083"
       gradientUnits="userSpaceOnUse"
       gradientTransform="matrix(0.54687127,0,0,0.54687127,43.50657,597.87477)" />
    <filter
       inkscape:collect="always"
       style="color-interpolation-filters:sRGB"
       id="filter4248"
       x="-0.068056267"
       width="1.1361125"
       y="-0.26145194"
       height="1.5229039">
      <feGaussianBlur
         inkscape:collect="always"
         stdDeviation="7.0419859"
         id="feGaussianBlur4250" />
    </filter>
  </defs>
  <sodipodi:namedview
     id="base"
     pagecolor="#ffffff"
     bordercolor="#666666"
     borderopacity="1.0"
     inkscape:pageopacity="0.0"
     inkscape:pageshadow="2"
     inkscape:zoom="7.9195959"
     inkscape:cx="38.532347"
     inkscape:cy="173.2706"
     inkscape:document-units="px"
     inkscape:current-layer="layer1"
     showgrid="false"
     units="px"
     inkscape:window-width="1280"
     inkscape:window-height="961"
     inkscape:window-x="-8"
     inkscape:window-y="-8"
     inkscape:window-maximized="1" />
  <metadata
     id="metadata7">
    <rdf:RDF>
      <cc:Work
         rdf:about="">
        <dc:format>image/svg+xml</dc:format>
        <dc:type
           rdf:resource="http://purl.org/dc/dcmitype/StillImage" />
        <dc:title />
      </cc:Work>
    </rdf:RDF>
  </metadata>
  <g
     inkscape:label="Camada 1"
     inkscape:groupmode="layer"
     id="layer1"
     transform="translate(0,-552.36209)">
    <rect
       style="opacity:0.96600001;fill:#fd9a1b;fill-opacity:1"
       id="rect4252"
       width="3.9285717"
       height="119.21945"
       x="39.541969"
       y="744.92706" />
    <circle
       style="opacity:1;fill:url(#linearGradient4371);fill-opacity:1"
       id="path4363"
       cx="258.53528"
       cy="832.33838"
       r="187.20311" />
    <circle
       style="opacity:1;fill:#ffffff;fill-opacity:0.66863906"
       id="path4303"
       cx="663.60724"
       cy="522.80768"
       r="11.199926"
       transform="matrix(0.89849017,0.43899364,-0.43899364,0.89849017,0,0)" />
    <path
       style="fill:none"
       inkscape:connector-curvature="0"
       d="m 266.80356,761.45302 90.63219,0 0,90.6322 -90.63219,0 z"
       id="path4217" />
    <path
       style="opacity:0.13999999;fill:url(#linearGradient4421);fill-opacity:1;filter:url(#filter4248)"
       d="m 296.62986,932.75808 49.88807,-1.00373 23.68216,101.78485 -234.76376,-3.9574 14.45438,-97.29823 z"
       id="rect4404"
       inkscape:connector-curvature="0"
       sodipodi:nodetypes="cccccc" />
    <path
       id="path4138"
       d="m 228.69135,798.00553 -60.21776,0 c -11.03993,0 -19.97222,9.03265 -19.97222,20.07259 L 148.401,938.51364 c 0,11.03992 9.03266,20.0726 20.07259,20.0726 l 160.5807,0 c 11.03993,0 20.07259,-9.03268 20.07259,-20.0726 l 0,-100.36295 c 0,-11.03991 -9.03266,-20.07257 -20.07259,-20.07257 l -80.29035,0 -20.07259,-20.07259 z"
       inkscape:connector-curvature="0"
       style="fill:#fd9a1b;fill-opacity:1" />
    <path
       style="opacity:1;fill:#616161;fill-opacity:1"
       inkscape:connector-curvature="0"
       d="m 179.83486,743.78771 c -5.21393,1.86802 -7.9041,7.64536 -6.03609,12.8593 l 27.12369,75.85603 c 1.86802,5.21394 7.61494,7.9685 12.82887,6.10049 l 56.92669,-20.39531 c 5.21395,-1.86802 7.95151,-7.66234 6.08349,-12.87627 l -20.37832,-56.87929 -38.6288,-18.25049 -37.91953,13.58554 z m 45.06695,21.29224 -9.34007,-26.06968 35.40974,16.72962 -26.06967,9.34006 z"
       id="path4215" />
    <path
       id="path4273"
       d="m 239.80471,786.37634 -5.3545,17.3419 11.5132,7.597 -3.19873,4.84768 c -6.82387,-4.49578 -18.17876,-11.99528 -18.17876,-11.99528 l -8.56721,27.74704 60.14352,-21.5478 -36.35752,-23.99054 z"
       inkscape:connector-curvature="0"
       style="fill:#ffffff" />
    <circle
       style="opacity:1;fill:#ffffff;fill-opacity:1"
       id="path4277"
       cx="-58.880463"
       cy="820.21985"
       r="6.8536582"
       transform="matrix(0.94140442,-0.33727988,0.33727988,0.94140442,0,0)" />
    <g
       id="g4204"
       transform="matrix(0.12121573,0.09471687,-0.09471687,0.12121573,286.33383,739.70351)">
      <g
         id="g4164"
         transform="matrix(0.7674869,-1.4160026,1.4160026,0.7674869,-298.61544,349.32368)">
        <path
           id="path4166"
           d="m 52.081,457.393 c 1.483,8.814 9.841,14.747 18.656,13.264 l 396.025,-66.696 c 8.815,-1.483 14.747,-9.842 13.265,-18.656 L 428.645,80.314 C 427.176,71.499 418.818,65.552 410.002,67.043 L 13.978,133.754 c -8.801,1.49 -14.748,9.841 -13.25,18.649 l 51.353,304.99 z"
           inkscape:connector-curvature="0"
           style="fill:#956759" />
        <path
           id="path4168"
           d="M 428.645,80.314 C 427.176,71.499 418.818,65.552 410.002,67.043 L 26.688,131.612 55.241,394.299 c 0,0 1.913,14.276 17.146,14.276 15.219,0 248.34,19.89 248.687,19.918 L 466.762,403.96 c 8.815,-1.483 14.747,-9.842 13.265,-18.656 L 428.645,80.314 Z"
           inkscape:connector-curvature="0"
           style="opacity:0.17000002;fill:#3c2415" />
        <g
           id="g4170">
          <path
             id="path4172"
             d="m 498.766,41.117 -424.328,0 c -7.041,0 -12.751,4.546 -12.751,10.16 l 0,338.275 c 0,5.62 5.71,10.167 12.751,10.167 l 341.497,0 95.569,-99.645 0,-248.798 c 0,-5.613 -5.697,-10.159 -12.738,-10.159 z"
             inkscape:connector-curvature="0"
             style="fill:#d19873" />
        </g>
        <polygon
           id="polygon4174"
           points="444.252,370.209 480.262,332.661 480.262,70.626 92.928,70.626 92.928,370.209 "
           style="fill:#e7bc95" />
        <path
           id="path4176"
           d="m 287.725,296.567 c 0,0 -51.576,-67.875 -194.797,-54.542 l 0,128.183 175.226,0.097 c -10e-4,10e-4 15.634,-47.721 19.571,-73.738 z"
           inkscape:connector-curvature="0"
           style="opacity:0.5;fill:#d19873" />
        <path
           id="path4178"
           d="m 480.262,143.041 c 0,0 -280.025,22.454 -288.744,227.265 l 221.783,0 66.961,-70.231 0,-157.034 z"
           inkscape:connector-curvature="0"
           style="fill:#f0d8ae" />
        <polygon
           id="polygon4180"
           points="415.935,399.719 415.935,300.074 511.504,300.074 "
           style="fill:#b47e69" />
        <polygon
           id="polygon4182"
           points="332.203,399.719 415.935,399.719 415.935,300.074 "
           style="opacity:0.5;fill:#b47e69" />
        <path
           id="path4184"
           d="m 303.65,117.891 c 0,15.773 12.779,28.553 28.553,28.553 15.759,0 28.539,-12.779 28.539,-28.553 0,-15.76 -12.78,-28.553 -28.539,-28.553 -15.773,0 -28.553,12.793 -28.553,28.553 z"
           inkscape:connector-curvature="0"
           style="fill:#f0d8ae" />
      </g>
      <g
         id="g4186" />
      <g
         id="g4188" />
      <g
         id="g4190" />
      <g
         id="g4192" />
      <g
         id="g4194" />
      <g
         id="g4196" />
    </g>
    <path
       sodipodi:nodetypes="ccssssscc"
       style="fill:#fcbf4a;fill-opacity:1"
       inkscape:connector-curvature="0"
       d="M 148.50137,818.07812 148.401,938.51364 c 0,11.03992 9.03266,20.0726 20.07259,20.0726 l 160.5807,0 c 11.03993,0 20.07259,-9.03268 20.07259,-20.0726 l 0,-100.36295 c 0,-11.03991 -9.03266,-20.07257 -20.07259,-20.07257 l -80.29035,0 c -55.57461,0.5566 -61.20601,0.86957 -100.26257,0 z"
       id="path4181" />
    <path
       style="fill:#ffffff"
       inkscape:connector-curvature="0"
       d="m 257.8807,867.306 -19.84632,26.46175 15.08321,20.11094 -8.46776,6.35082 C 235.70575,908.32172 220.83425,888.4754 220.83425,888.4754 l -31.75411,42.33881 116.43173,0 L 257.8807,867.306 Z"
       id="path4156" />
    <path
       style="fill:#fcbf4a;fill-opacity:1"
       inkscape:connector-curvature="0"
       d="m 475.22741,585.21336 c -3.31314,-16.80927 -18.07605,-29.4284 -35.81104,-29.4284 -14.08081,0 -26.31016,7.99049 -32.40047,19.6839 -14.66547,1.55912 -26.06654,13.98336 -26.06654,29.03861 0,16.12715 13.10635,29.23351 29.2335,29.23351 l 63.33926,0 c 13.44741,0 24.36125,-10.91384 24.36125,-24.36125 0,-12.86275 -9.98811,-23.28936 -22.65596,-24.16637 z"
       id="path4502" />
    <path
       id="path4516"
       d="m 408.65836,605.7262 c -2.8552,-14.48592 -15.57761,-25.36085 -30.8613,-25.36085 -12.13458,0 -22.67361,6.88606 -27.92213,16.96322 -12.63843,1.34362 -22.46366,12.0506 -22.46366,25.02494 0,13.89808 11.29481,25.1929 25.19289,25.1929 l 54.58461,0 c 11.58873,0 20.99407,-9.40535 20.99407,-20.99408 0,-11.08488 -8.60756,-20.07034 -19.52448,-20.82613 z"
       inkscape:connector-curvature="0"
       style="opacity:1;fill:#fd9a1b;fill-opacity:1" />
    <path
       style="fill:#fcbf4a;fill-opacity:1"
       inkscape:connector-curvature="0"
       d="m 41.936194,746.33842 c -1.183926,-9.53872 5.778398,-18.47425 15.317113,-19.65817 9.538715,-1.18393 18.474247,5.77839 19.658173,15.31711 l -34.975286,4.34106 z m 0,0 c 1.183926,9.53872 -5.778398,18.47425 -15.317113,19.65817 -9.538714,1.18393 -18.4742472,-5.77839 -19.6581732,-15.31711 l 34.9752862,-4.34106 z m 0,0 c -9.538715,1.18393 -18.474247,-5.7784 -19.658173,-15.31711 -1.183926,-9.53872 5.778399,-18.47425 15.317113,-19.65818 l 4.34106,34.97529 z m 0,0 c 9.538715,-1.18393 18.474247,5.7784 19.658173,15.31711 1.183926,9.53872 -5.778399,18.47425 -15.317113,19.65818 l -4.34106,-34.97529 z"
       id="path4542" />
    <path
       style="opacity:1;fill:#fd9a1b;fill-opacity:1"
       inkscape:connector-curvature="0"
       d="m 58.921799,643.32263 c -1.45877,-7.40109 -7.958864,-12.95728 -15.767555,-12.95728 -6.199758,0 -11.584324,3.51821 -14.26588,8.6668 -6.457184,0.68647 -11.477057,6.15684 -11.477057,12.78565 0,7.10076 5.770706,12.87147 12.871466,12.87147 l 27.888188,0 c 5.920875,0 10.72622,-4.80535 10.72622,-10.72622 0,-5.66345 -4.397746,-10.25427 -9.975382,-10.64042 z"
       id="path4570" />
    <path
       id="path4568"
       d="m 93.32567,651.19669 c -1.81552,-9.21106 -9.90522,-16.12602 -19.62354,-16.12602 -7.71593,0 -14.417303,4.37859 -17.754638,10.78628 -8.036308,0.85436 -14.283806,7.66253 -14.283806,15.91242 0,8.83727 7.181948,16.01922 16.01922,16.01922 l 34.708314,0 c 7.368835,0 13.34933,-5.9805 13.34933,-13.34934 0,-7.04846 -5.47323,-12.76198 -12.41488,-13.24256 z"
       inkscape:connector-curvature="0"
       style="fill:#fcbf4a;fill-opacity:1" />
  </g>
</svg>
